<svg width="512" height="512" viewBox="0 0 512 512" fill="none" xmlns="http://www.w3.org/2000/svg">
<path d="M29.2 250.2C29.7 244.7 30.7 234.1 31.5 223.5C31.7 221 31.4 218.2 30.3 216C-9.79999 136 32.8 40.6001 119.3 17.7001C153.5 8.60007 186.6 12.7001 218.4 28.5001C220.9 29.7001 224.1 30.4001 226.8 30.1001C290.8 23.0001 348.6 38.4001 398.8 79.0001C445.6 116.9 473 166.2 481.2 226.1C483.9 245.9 483.7 265.6 481.3 285.4C480.9 288.4 481.6 292.1 483.1 294.7C531.4 379.4 480.2 486.7 383.9 501.8C350.1 507.1 318.3 500.6 288.9 482.9C286.7 481.6 283.6 480.8 281.1 481C184.4 490.3 96.4 442 52.7 355.6C37.7 325.9 29.7 291.5 29.2 250.2ZM48.6 255.4C49.3 305.6 66.7 353.7 100.8 391.6C149.6 445.8 210.9 468.4 283.4 460.3C287.9 459.8 291.6 460.5 295.5 463.1C326.7 483.7 360.5 489 396.2 478.5C471.7 456.2 504.9 368.4 463.5 301.2C461.3 297.7 459.3 294.4 460.1 289.7C464.9 262.8 464 236 458 209.3C434.7 106.6 336.5 35.1001 227 50.4001C221.2 51.2001 216.5 50.4001 211.4 47.7001C158 18.6001 91.4 33.7001 56.9 83.8001C29 124.4 27.7 167.2 50.2 210.8C51.8 214 52.7 216.9 52.2 220.6C50.7 232.2 49.7 243.8 48.6 255.4Z" fill="white"/>
<path d="M253.5 383.1C233 382.9 213 380.4 194 372.1C182.4 367 172 360.2 163.4 350.9C155.5 342.4 150.7 332.6 150.7 320.8C150.6 302 169.4 290.7 185.8 300C189.7 302.2 193.1 305.8 196.3 309.1C199.7 312.6 202.7 316.3 205.6 320.2C219.2 338.2 238.2 342.6 259.3 341.4C269.3 340.9 278.6 338.1 286.8 332C296.2 324.9 301 315.7 298.9 303.8C296.9 292.5 288.7 286.9 278.6 284.1C259 278.7 239.3 273.9 219.6 269C204.2 265.1 189.1 260.8 176 251.2C160.3 239.8 152 224.2 151 205C149.2 169.6 164.7 144.7 198.4 132.3C239.1 117.3 279.2 119.6 317.3 141.5C324.4 145.6 330.9 151.2 336.5 157.2C340.5 161.5 343.3 167.6 344.9 173.3C348.2 184.9 344.8 193.6 336.1 199.1C326.3 205.3 313.9 205.1 305.3 197.8C299.6 193 294.6 187.3 289.4 181.9C283.6 175.9 276.6 171.8 268.6 169.6C254.8 165.8 241 165.2 227.2 169.1C218.7 171.5 211.8 176.2 207.8 184.4C202.5 195.1 204.6 205.4 214.9 211.3C222.8 215.9 231.7 219.4 240.6 221.7C259.2 226.6 278.3 230.1 296.9 235C305.8 237.4 314.7 240.8 322.8 245.3C349.7 260.2 358.8 285.3 355.6 313.8C351.9 346.3 330.7 369.1 296.1 377.7C282.3 381.1 267.9 382.2 253.8 384.3C253.6 384 253.6 383.5 253.5 383.1Z" fill="white"/>
</svg>
